PathFileType	4	(X/Y/Z)	C:\Users\ebm\Documents\Erivelton\Erivelton\propulsion2.trc
DataRate	CameraRate	NumFrames	NumMarkers	Units	OrigDataRate	OrigDataStartFrame	OrigNumFrames
150.00	150.00	      7	28	mm	150.00	631	      1261
Frame#	Time	IJ			PX			C7			T8			RAC			RAS			RPS			RAI			RPI			RLE			RME			RRS			RUS			R3M			R5M			LAC			LAS			LPS			LAI			LPI			LLE			LME			LRS			LUS			L3M			L5M			RW			LW			V_mid_elbow_r			V_mid_elbow_l			V_mid_wrist_r			V_mid_wrist_l			V_mid_trunk_low			V_mid_trunk_upp			
		X1	Y1	Z1	X2	Y2	Z2	X3	Y3	Z3	X4	Y4	Z4	X5	Y5	Z5	X6	Y6	Z6	X7	Y7	Z7	X8	Y8	Z8	X9	Y9	Z9	X10	Y10	Z10	X11	Y11	Z11	X12	Y12	Z12	X13	Y13	Z13	X14	Y14	Z14	X15	Y15	Z15	X16	Y16	Z16	X17	Y17	Z17	X18	Y18	Z18	X19	Y19	Z19	X20	Y20	Z20	X21	Y21	Z21	X22	Y22	Z22	X23	Y23	Z23	X24	Y24	Z24	X25	Y25	Z25	X26	Y26	Z26	X27	Y27	Z27	X28	Y28	Z28	

631	4.200	2143.59131	1024.55457	72.63572	2153.43799	849.92468	74.97746	2023.50012	1130.12219	74.86246	1929.71606	940.27545	84.88293	2060.52588	1082.57593	261.04492	2000.04773	932.75677	331.64163	1968.28284	974.77130	343.49673	1940.54749	881.53729	353.31006	1913.36292	922.92529	366.12921	1845.26855	869.74103	388.75049	1817.54700	854.13855	309.62430	1941.56921	619.23151	348.04309	1904.80933	613.33795	396.12173	1975.04968	556.56281	399.22726	1938.98010	543.40564	404.29471	2011.88196	1069.35327	-106.70884	1897.82312	965.38165	-160.69305	1935.88867	942.43335	-180.57782	1846.65662	905.50409	-189.35349	1891.42554	881.41174	-210.43265	1825.73706	835.92529	-223.15730	1805.41699	814.80823	-142.76048	1956.39063	608.35730	-188.91496	1915.69739	579.74982	-243.08488	2000.23267	548.94165	-255.00085	1965.06067	524.23798	-255.96768	2110.62720	304.76810	384.01651	2064.06274	302.40234	-242.31404	1831.40784	861.93982	349.18741	1815.57703	825.36676	-182.95889	1923.18933	616.28473	372.08240	1936.04395	594.05353	-215.99992	2041.57703	895.10004	79.93020	2083.54565	1077.33838	73.74909	
632	4.207	2152.35913	1024.17212	71.92772	2161.57593	849.52734	74.35384	2032.34644	1129.96594	74.10387	1938.19055	940.43066	84.21172	2069.51855	1082.27087	260.43243	2009.50586	931.31470	330.48312	1977.44482	972.91736	342.77396	1950.57092	879.43018	352.05438	1923.03137	920.48389	365.14841	1855.16235	867.02460	387.41925	1827.93958	851.15387	308.09052	1953.86584	617.93951	348.72018	1916.90857	611.15662	395.75510	1989.05042	555.12946	398.79321	1952.98132	541.53503	403.95786	2020.85229	1068.89429	-107.75248	1907.29028	963.28998	-162.31827	1945.79163	940.60620	-182.02992	1856.77307	902.98456	-191.19046	1901.95630	879.30579	-212.05663	1836.95325	833.19611	-224.95538	1816.31226	811.78613	-144.71240	1970.63635	607.28601	-188.76643	1931.92297	579.30682	-244.99911	2017.72314	549.92059	-256.48560	1982.17517	525.10919	-258.64429	2118.61084	304.60782	383.49182	2071.84204	302.49136	-242.87529	1841.55090	859.08923	347.75488	1826.63269	822.49109	-184.83389	1935.38721	614.54803	372.23764	1951.27966	593.29639	-216.88278	2049.88330	894.97900	79.28278	2092.35278	1077.06909	73.01579	
633	4.213	2161.01074	1023.91125	71.26646	2169.69092	849.14276	73.72671	2041.20996	1129.83667	73.36571	1946.61365	940.66528	83.56963	2078.66919	1081.90149	259.82944	2019.02283	929.78278	329.40878	1986.62097	971.04224	342.14505	1960.70886	877.32117	350.93222	1932.83350	918.00830	364.38803	1865.12207	864.19995	386.28067	1838.37048	848.02802	306.79028	1968.29565	617.10010	349.34042	1929.85144	609.11401	395.62473	2003.89136	554.66577	398.85312	1968.14832	540.06177	404.02594	2029.92334	1068.49060	-109.09418	1916.83984	961.11890	-164.07655	1955.71521	938.82617	-183.50334	1867.00708	900.31744	-193.12617	1912.68213	876.96960	-213.71306	1848.28467	830.37732	-226.91255	1827.70813	808.52063	-146.89023	1985.50916	606.49805	-189.79594	1948.40759	578.89160	-247.10991	2035.57971	551.33099	-257.87411	2000.04041	525.92957	-261.54144	2126.45581	304.43686	383.04297	2079.84131	302.48419	-243.31750	1851.74622	856.11395	346.53546	1837.99634	819.44897	-186.90138	1949.07349	613.10706	372.48257	1966.95837	592.69482	-218.45293	2058.15234	894.90399	78.64817	2101.11035	1076.87390	72.31609	
634	4.220	2169.67969	1023.46686	70.41286	2177.68921	848.75513	73.23906	2050.08667	1129.70313	72.48951	1955.02417	940.85278	82.89915	2087.81763	1081.51343	259.20663	2028.72180	928.28259	328.35812	1995.92761	969.10541	341.59485	1970.96570	875.11285	349.94614	1942.66675	915.51428	363.63342	1875.25537	861.35657	385.25952	1848.99780	844.74542	305.63324	1981.58423	616.15503	349.03195	1943.94116	607.50183	395.95126	2020.26965	554.98517	398.93283	1984.89148	539.19525	404.27490	2038.89966	1067.94434	-109.90845	1926.51453	958.82672	-165.96460	1965.73621	936.94714	-184.98906	1877.48218	897.55963	-195.36778	1923.75110	874.56433	-215.57974	1859.96143	827.38867	-229.05920	1839.26477	805.09174	-149.31734	2000.56213	605.56726	-190.92772	1965.08813	578.67310	-249.40068	2053.79419	554.63672	-261.39532	2018.17981	527.11249	-264.53860	2134.39771	304.25662	382.46838	2087.63696	302.59540	-243.88724	1862.12659	853.05096	345.44638	1849.61304	816.24017	-189.18826	1962.76270	611.82843	372.49161	1982.82520	592.12018	-220.16420	2066.35669	894.80396	78.06910	2109.88306	1076.58496	71.45119	
635	4.227	2178.48608	1023.23102	69.74860	2185.75171	848.42462	72.58451	2058.94360	1129.56702	71.75711	1963.49341	941.06329	82.17776	2097.05859	1081.08069	258.61642	2038.33337	926.75952	327.50470	2005.26648	967.19574	341.08054	1981.20752	872.99048	349.13522	1952.58374	913.01038	363.03250	1885.42493	858.52081	384.53326	1859.73376	841.36206	304.64896	1995.49304	615.09271	348.58847	1958.93713	606.12341	396.29581	2037.25403	556.36523	398.90091	2002.27515	539.40881	404.80392	2048.18091	1067.42139	-111.34032	1936.39063	956.45349	-167.98178	1975.97424	935.05334	-186.69139	1888.21448	894.74414	-197.63921	1934.87646	872.17053	-217.56537	1871.92627	824.42523	-231.42235	1850.92371	801.69385	-151.83936	2015.59680	604.54266	-192.04901	1982.51819	578.40491	-251.10204	2071.85034	556.70581	-262.83426	2036.18616	528.45831	-267.57455	2142.23413	304.09891	381.92407	2095.73877	302.53574	-244.43727	1872.57935	849.94147	344.59113	1861.42505	813.05957	-191.63086	1977.21509	610.60803	372.44214	1999.05750	591.47382	-221.57552	2074.62256	894.74396	77.38114	2118.71484	1076.39905	70.75285	
636	4.233	2187.14502	1022.75354	68.87637	2193.65308	848.06860	71.99769	2067.92749	1129.39111	70.95506	1971.97473	941.34943	81.48103	2106.25708	1080.62769	258.04013	2048.11230	925.33051	326.72983	2014.66711	965.38153	340.68567	1991.52087	870.87665	348.33594	1962.58496	910.68225	362.56110	1895.70691	855.79535	383.97665	1870.57886	837.95154	304.00186	2008.57825	614.36749	347.65723	1975.20972	605.26727	396.24783	2055.62109	557.36841	398.06851	2020.68750	539.94360	405.20190	2057.34790	1066.83545	-112.54239	1946.42188	954.13721	-170.15236	1986.51465	932.99109	-188.52115	1899.07141	892.00745	-200.14992	1946.21497	869.74982	-219.64748	1884.08521	821.40204	-233.92641	1862.87024	798.30206	-154.44141	2030.61255	603.59991	-193.04567	1999.15588	578.03308	-252.93958	2089.24390	558.19220	-264.52328	2053.56372	529.49927	-270.13193	2150.05859	303.99493	381.45071	2103.65308	302.53436	-244.97449	1883.14282	846.87341	343.98926	1873.47766	809.85205	-194.18390	1991.89392	609.81738	371.95255	2014.88416	590.81647	-222.99263	2082.81396	894.70905	76.73936	2127.53638	1076.07227	69.91571	
637	4.240	2195.80054	1022.38470	68.10526	2201.68188	847.68292	71.29637	2076.75171	1129.26770	70.19163	1980.36633	941.64038	80.72942	2115.47290	1080.11487	257.44128	2057.90161	923.93286	326.04004	2024.12561	963.63629	340.36661	2001.89453	868.96167	347.85999	1972.61597	908.42090	362.26749	1906.11694	853.23523	383.71848	1881.43152	834.62787	303.72287	2022.71814	613.98602	347.14682	1990.44470	603.65033	396.14093	2073.00024	559.04675	397.57965	2038.63135	541.35101	406.13052	2066.73804	1066.21204	-113.61623	1956.71204	951.83887	-172.34238	1997.00317	931.11383	-190.39796	1910.46204	889.04974	-203.27190	1957.75488	867.37897	-221.67122	1896.35388	818.51855	-236.60814	1874.81628	794.94891	-157.19511	2045.89465	603.05078	-194.14262	2015.27759	577.44751	-254.46530	2105.50024	559.20197	-266.51208	2069.73462	530.07574	-272.36749	2157.98267	303.94284	380.85675	2111.82227	302.51089	-245.44525	1893.77417	843.93152	343.72067	1885.58508	806.73370	-196.90163	2006.58142	608.81818	371.64389	2030.58606	590.24915	-224.30397	2091.02417	894.66162	76.01289	2136.27612	1075.82617	69.14845	
